<?xml version="1.0" encoding="UTF-8"?>
<svg version="1.1" xmlns="http://www.w3.org/2000/svg" width="800" height="840">
<path d="M0 0 C1.37502686 0.74781738 1.37502686 0.74781738 2.77783203 1.51074219 C3.81568848 2.07188721 4.85354492 2.63303223 5.92285156 3.21118164 C7.03257324 3.82050537 8.14229492 4.4298291 9.28564453 5.05761719 C10.45975499 5.69626094 11.63407468 6.33452014 12.80859375 6.97241211 C21.02903298 11.44911596 29.17264598 16.05744064 37.30078125 20.69921875 C46.26946506 25.79058463 55.38037392 30.59955121 64.50128174 35.41030884 C73.96391131 40.40438975 83.32569309 45.53389683 92.60986328 50.85449219 C100.78620841 55.51350972 109.08786646 59.91800728 117.41064453 64.30761719 C126.65285894 69.18215734 135.84345999 74.11172265 144.91064453 79.30761719 C155.36458496 85.29495141 165.98556599 90.94092819 176.63476562 96.57006836 C177.99628495 97.2898225 179.35777616 98.00962983 180.71923828 98.72949219 C181.38290405 99.08038406 182.04656982 99.43127594 182.73034668 99.7928009 C191.14114282 104.2452795 199.48793191 108.81399268 207.83056641 113.39257812 C212.31182896 115.85031826 216.79885436 118.29748727 221.28564453 120.74511719 C222.18951904 121.23866699 223.09339355 121.7322168 224.0246582 122.24072266 C228.78366532 124.83746417 233.54801837 127.42377382 238.32080078 129.99511719 C249.30663398 135.91681235 260.22217127 141.9382442 271.06689453 148.11474609 C280.07202788 153.22403049 289.21396765 158.0536757 298.41064453 162.80761719 C298.41064453 168.74761719 298.41064453 174.68761719 298.41064453 180.80761719 C279.93676355 192.82209922 279.93676355 192.82209922 273.12158203 192.80029297 C268.71826714 191.65089827 265.18918073 189.00214869 261.56787109 186.33154297 C257.5196849 183.47178989 253.11862168 181.20256778 248.78564453 178.80761719 C246.81363594 177.68376472 244.84230532 176.55872196 242.87158203 175.43261719 C235.78764938 171.42492138 228.60392497 167.61398761 221.41064453 163.80761719 C212.54654664 159.11534218 203.74014391 154.35485208 195.03564453 149.37011719 C185.24165588 143.76351536 175.29931437 138.468326 165.31890869 133.20437622 C155.85664975 128.21047552 146.49523813 123.08113248 137.21142578 117.76074219 C129.03508065 113.10172465 120.7334226 108.69722709 112.41064453 104.30761719 C102.24904572 98.94817417 92.18016773 93.47365363 82.21142578 87.76074219 C74.03507063 83.10171894 65.73333032 78.69741834 57.41064453 74.30761719 C48.0047383 69.34574548 38.65339408 64.31978271 29.41064453 59.05761719 C28.05338257 58.29819824 28.05338257 58.29819824 26.66870117 57.5234375 C21.74560202 54.76018092 16.92878831 51.88759677 12.15673828 48.87011719 C2.02829434 41.79722907 2.02829434 41.79722907 -9.57763672 40.20214844 C-12.70156179 41.74069055 -15.1805741 43.34590147 -17.87695312 45.5078125 C-20.90865904 47.80903894 -24.29983913 49.46112561 -27.65185547 51.24511719 C-29.18648776 52.09946416 -30.71892195 52.95776762 -32.24951172 53.81933594 C-38.68188765 57.42448415 -45.13424727 60.99339062 -51.58935547 64.55761719 C-52.20679626 64.89866486 -52.82423706 65.23971252 -53.46038818 65.59109497 C-63.45713847 71.11014434 -73.49696631 76.54428345 -83.55883789 81.94384766 C-90.96290952 85.92081386 -98.32538598 89.96462225 -105.66357422 94.06152344 C-112.00309666 97.60045363 -118.35830906 101.11098463 -124.71435547 104.62011719 C-125.64947464 105.13655289 -125.64947464 105.13655289 -126.60348511 105.66342163 C-136.01551763 110.85950069 -145.46104585 115.99036524 -154.92529297 121.09082031 C-161.57072781 124.68378542 -168.1526532 128.37679118 -174.71435547 132.12011719 C-183.69412921 137.23933229 -192.77205557 142.15086363 -201.90185547 146.99511719 C-212.00599492 152.35678821 -222.05854461 157.79257632 -232.03808594 163.38330078 C-237.58650741 166.48085972 -243.15110464 169.54929891 -248.71435547 172.62011719 C-249.3381308 172.96458893 -249.96190613 173.30906067 -250.60458374 173.66397095 C-260.01624535 178.85987689 -269.46140515 183.99055887 -278.92529297 189.09082031 C-285.57072163 192.68378208 -292.15279503 196.37654895 -298.71435547 200.12011719 C-309.10131322 206.04614417 -319.63218617 211.68198848 -330.21289062 217.25219727 C-340.70020661 222.53856718 -340.70020661 222.53856718 -350.58935547 228.80761719 C-350.58935547 229.46761719 -350.58935547 230.12761719 -350.58935547 230.80761719 C-349.27668701 231.50153564 -349.27668701 231.50153564 -347.9375 232.20947266 C-332.92469056 240.14921211 -317.91895809 248.08679397 -303.10839844 256.39941406 C-297.57221264 259.49426962 -292.0172271 262.55533494 -286.46435547 265.62011719 C-285.84039886 265.96467957 -285.21644226 266.30924194 -284.57357788 266.66424561 C-276.14371225 271.31814459 -267.69103701 275.92687918 -259.21435547 280.49511719 C-251.57636583 284.61136886 -244.00069539 288.82077899 -236.46435547 293.12011719 C-227.48458173 298.23933229 -218.40665537 303.15086363 -209.27685547 307.99511719 C-199.17271602 313.35678821 -189.12016633 318.79257632 -179.140625 324.38330078 C-173.59220238 327.48086036 -168.02753606 330.54916969 -162.46435547 333.62011719 C-161.84190948 333.96392426 -161.2194635 334.30773132 -160.57815552 334.66195679 C-152.06562922 339.36259561 -143.52632819 344.00998494 -134.96435547 348.62011719 C-127.47793713 352.66072347 -120.03201595 356.76314196 -112.65185547 360.99511719 C-111.84603027 361.45313721 -111.04020508 361.91115723 -110.20996094 362.38305664 C-109.4805127 362.80546631 -108.75106445 363.22787598 -107.99951172 363.66308594 C-107.04250366 364.21452271 -107.04250366 364.21452271 -106.06616211 364.77709961 C-104.58935547 365.80761719 -104.58935547 365.80761719 -103.58935547 367.80761719 C-101.47608122 368.71487153 -101.47608122 368.71487153 -99.02685547 369.43261719 C-97.78742188 369.82320313 -97.78742188 369.82320313 -96.52294922 370.22167969 C-95.88486328 370.41503906 -95.24677734 370.60839844 -94.58935547 370.80761719 C-94.58935547 371.46761719 -94.58935547 372.12761719 -94.58935547 372.80761719 C-93.96287109 373.01257813 -93.33638672 373.21753906 -92.69091797 373.42871094 C-91.46501953 373.83283203 -91.46501953 373.83283203 -90.21435547 374.24511719 C-88.99619141 374.64537109 -88.99619141 374.64537109 -87.75341797 375.05371094 C-85.58935547 375.80761719 -85.58935547 375.80761719 -83.58935547 376.80761719 C-83.58935547 377.46761719 -83.58935547 378.12761719 -83.58935547 378.80761719 C-82.72342773 379.07155273 -81.8575 379.33548828 -80.96533203 379.60742188 C-77.59234254 380.80655525 -74.69352081 382.26172393 -71.57373047 384.01074219 C-71.00903549 384.32508713 -70.44434052 384.63943207 -69.86253357 384.96330261 C-68.64993158 385.63888173 -67.43857304 386.31669677 -66.22836304 386.99655151 C-62.99112724 388.81492421 -59.74477587 390.61690597 -56.49951172 392.42089844 C-55.50803886 392.97288658 -55.50803886 392.97288658 -54.49653625 393.536026 C-46.88404514 397.76817428 -39.22283508 401.91145978 -31.51074219 405.95947266 C-26.83117146 408.43083696 -22.30590073 410.91012315 -17.97607422 413.95996094 C-14.22412056 416.56362984 -11.00573159 418.52729968 -6.58935547 419.80761719 C-1.35378196 418.79785775 2.43659428 416.32461027 6.85205078 413.42529297 C11.50751551 410.48186651 16.39530992 407.9421968 21.2366333 405.32067871 C24.39695694 403.60078456 27.54010523 401.85012992 30.68408203 400.10058594 C31.97407484 399.38354309 33.26411401 398.66658363 34.55419922 397.94970703 C35.19272827 397.59487244 35.83125732 397.24003784 36.48913574 396.87445068 C41.45614205 394.11673824 46.42946631 391.37043637 51.40319824 388.62487793 C52.61338119 387.95675694 53.82342429 387.28838257 55.0333252 386.61975098 C64.59520912 381.33597854 74.18968272 376.11421953 83.82592773 370.96704102 C87.62226307 368.92708412 91.34987963 366.9215287 94.88330078 364.44824219 C97.41064453 362.80761719 97.41064453 362.80761719 100.41064453 362.80761719 C100.41064453 362.14761719 100.41064453 361.48761719 100.41064453 360.80761719 C101.67755961 360.13353411 102.94935202 359.46861222 104.22314453 358.80761719 C104.93083984 358.43636719 105.63853516 358.06511719 106.36767578 357.68261719 C108.41064453 356.80761719 108.41064453 356.80761719 111.41064453 356.80761719 C111.41064453 356.14761719 111.41064453 355.48761719 111.41064453 354.80761719 C112.16458496 354.40559082 112.91852539 354.00356445 113.6953125 353.58935547 C127.46321654 346.24325961 141.20655856 338.86480485 154.82714844 331.24804688 C160.38776546 328.14772175 165.96193519 325.07182275 171.53564453 321.99511719 C172.46854309 321.48004105 172.46854309 321.48004105 173.42028809 320.95455933 C182.95325845 315.69314169 192.51547292 310.48797822 202.09594727 305.31347656 C209.23375397 301.4548788 216.33505808 297.53531354 223.42236328 293.58496094 C229.74415204 290.06205184 236.07583693 286.55704759 242.41064453 283.05761719 C243.33816528 282.54522995 243.33816528 282.54522995 244.28442383 282.02249146 C254.28027038 276.50401885 264.31919882 271.07044463 274.38012695 265.67138672 C281.78419858 261.69442051 289.14667504 257.65061213 296.48486328 253.55371094 C302.82438572 250.01478074 309.17959812 246.50424974 315.53564453 242.99511719 C316.15905731 242.65082672 316.78247009 242.30653625 317.42477417 241.95181274 C326.81688188 236.76673353 336.23626739 231.63488718 345.68945312 226.56176758 C350.79673569 223.80933208 355.85469271 220.99151462 360.87158203 218.07714844 C361.92555176 217.46766357 362.97952148 216.85817871 364.06542969 216.23022461 C366.08445929 215.05763312 368.09750174 213.8746532 370.10351562 212.67993164 C371.00408691 212.1574585 371.9046582 211.63498535 372.83251953 211.09667969 C373.62239258 210.62955566 374.41226563 210.16243164 375.22607422 209.68115234 C378.65291364 208.31087614 380.82400445 209.57030452 384.16361713 210.92127323 C388.58312977 213.24209237 391.80640155 214.96037419 393.40967369 219.86176872 C393.76759587 223.75325441 393.77335714 227.56522069 393.65942383 231.46362305 C393.65631796 232.95231901 393.65806869 234.44103182 393.66429138 235.92971802 C393.66743961 239.95752325 393.60292015 243.98170323 393.52597785 248.00866771 C393.45706856 252.22186282 393.45074087 256.43514729 393.43769836 260.64881897 C393.40354967 268.62151928 393.31334319 276.59255436 393.20285398 284.56452233 C393.07977039 293.64287335 393.0193897 302.72130522 392.96420419 311.80028331 C392.8493192 330.47033768 392.65592278 349.13884342 392.41064453 367.80761719 C388.8187644 369.85258609 385.22429248 371.89295877 381.62939453 373.93261719 C380.12844238 374.78726563 380.12844238 374.78726563 378.59716797 375.65917969 C371.77584047 379.52569704 364.88487133 383.22469717 357.91064453 386.80761719 C356.83532471 387.36304199 355.76000488 387.9184668 354.65209961 388.49072266 C353.39755981 389.13871826 353.39755981 389.13871826 352.11767578 389.79980469 C346.53401809 392.71326432 341.06149415 395.80071122 335.59814453 398.93261719 C325.97971894 404.44233157 316.2212516 409.65169243 306.41064453 414.80761719 C295.8814545 420.34212317 285.44034519 425.97927148 275.12084961 431.89868164 C266.87110093 436.60533997 258.49505604 441.05860217 250.09814453 445.49511719 C240.22901294 450.70982865 230.39706651 455.97300615 220.66064453 461.43261719 C205.02642959 470.19725284 189.20580133 478.63648364 173.44287109 487.16650391 C168.43138696 489.87883856 163.42105695 492.59330345 158.41064453 495.30761719 C152.38778653 498.57040772 146.36467879 501.83273237 140.34033203 505.09277344 C130.73000469 510.29430311 121.12505783 515.50511944 111.53564453 520.74511719 C102.40517297 525.73371843 93.24719486 530.6700967 84.08300781 535.59643555 C77.17924814 539.31003054 70.28876815 543.04677182 63.41064453 546.80761719 C55.42753887 551.17264864 47.42462965 555.49954836 39.41064453 559.80761719 C31.04409366 564.30590298 22.68719327 568.82102626 14.34814453 573.37011719 C13.03813477 574.08458008 13.03813477 574.08458008 11.70166016 574.81347656 C10.45739258 575.49313477 10.45739258 575.49313477 9.18798828 576.18652344 C8.39247559 576.61723145 7.59696289 577.04793945 6.77734375 577.49169922 C5.15654624 578.39288537 3.55437099 579.32816436 1.96972656 580.29150391 C1.18839355 580.75959473 0.40706055 581.22768555 -0.39794922 581.70996094 C-1.0855835 582.13656006 -1.77321777 582.56315918 -2.48168945 583.00268555 C-5.28297367 584.07251458 -6.74433183 583.68706259 -9.58935547 582.80761719 C-11.97924805 581.70703125 -11.97924805 581.70703125 -14.48388672 580.32324219 C-15.42699707 579.80689209 -16.37010742 579.29054199 -17.34179688 578.75854492 C-18.35161621 578.19723877 -19.36143555 577.63593262 -20.40185547 577.05761719 C-22.57232495 575.86602251 -24.74290084 574.67462164 -26.91357422 573.48339844 C-28.02265137 572.87189941 -29.13172852 572.26040039 -30.27441406 571.63037109 C-35.40655276 568.80841296 -40.56111171 566.02828232 -45.71435547 563.24511719 C-54.25274125 558.62318712 -62.77954561 553.98036136 -71.30078125 549.3269043 C-78.05596001 545.63956644 -84.82078236 541.97030264 -91.58935547 538.30761719 C-100.16919961 533.66479664 -108.73835851 529.00290227 -117.30029297 524.32714844 C-124.05565466 520.6397662 -130.82062239 516.9703892 -137.58935547 513.30761719 C-146.17007015 508.66432557 -154.7410072 504.00360558 -163.30249023 499.32495117 C-168.02559386 496.74552375 -172.75393662 494.17643968 -177.49169922 491.62402344 C-187.33026646 486.32129452 -197.12874003 480.9666965 -206.83935547 475.43261719 C-215.94138639 470.24618287 -225.14498661 465.26653053 -234.39355469 460.34814453 C-242.27460972 456.15445762 -250.09073022 451.8667375 -257.83935547 447.43261719 C-267.67594921 441.80770868 -277.65939881 436.49015898 -287.68054199 431.20465088 C-297.13483653 426.21496124 -306.48937948 421.09159539 -315.7644043 415.77392578 C-325.49834573 410.22574331 -335.40808904 405.0122771 -345.32763672 399.80566406 C-345.98371414 399.46014496 -346.63979156 399.11462585 -347.31575012 398.75863647 C-349.09417238 397.82237056 -350.87429006 396.88932703 -352.65454102 395.95654297 C-358.02996609 393.02085447 -363.29886225 389.89373823 -368.58935547 386.80761719 C-368.25935547 414.52761719 -367.92935547 442.24761719 -367.58935547 470.80761719 C-359.66935547 475.09761719 -351.74935547 479.38761719 -343.58935547 483.80761719 C-332.33935547 490.18261719 -332.33935547 490.18261719 -329.17358398 491.98413086 C-321.60694868 496.2784697 -313.9540012 500.40323357 -306.27685547 504.49511719 C-296.52256526 509.69454635 -286.82032424 514.97223287 -277.17285156 520.3671875 C-271.61223454 523.46751262 -266.03806481 526.54341162 -260.46435547 529.62011719 C-259.8424231 529.96350128 -259.22049072 530.30688538 -258.57971191 530.66067505 C-249.04674155 535.92209268 -239.48452708 541.12725616 -229.90405273 546.30175781 C-222.76880104 550.15897438 -215.66995047 554.0769478 -208.58544922 558.02636719 C-202.22052203 561.57346739 -195.8432583 565.09823331 -189.46435547 568.62011719 C-188.84278564 568.96332001 -188.22121582 569.30652283 -187.58081055 569.66012573 C-178.047469 574.92171616 -168.48488628 580.12706215 -158.90405273 585.30175781 C-151.76880104 589.15897438 -144.66995047 593.0769478 -137.58544922 597.02636719 C-131.22052088 600.57346803 -124.84316497 604.09806247 -118.46435547 607.62011719 C-117.84112396 607.96431702 -117.21789246 608.30851685 -116.57577515 608.66314697 C-108.14517015 613.31739743 -99.69173296 617.9264497 -91.21435547 622.49511719 C-83.53579097 626.63367957 -75.91784588 630.86367139 -68.33935547 635.18261719 C-59.13260504 640.42764597 -49.8273305 645.47100583 -40.47744751 650.45413208 C-32.96482598 654.45812654 -25.46831257 658.48511638 -18.02685547 662.62011719 C-17.30135498 663.02254639 -16.57585449 663.42497559 -15.82836914 663.83959961 C-13.01062746 665.41260571 -10.27602511 667.0165041 -7.58935547 668.80761719 C-3.72739139 668.44875977 -0.37326511 666.25485254 2.99267578 664.44824219 C3.95540154 663.93761482 3.95540154 663.93761482 4.93757629 663.41667175 C7.03536292 662.30178697 9.12937598 661.18002747 11.22314453 660.05761719 C12.68520026 659.2777111 14.14727726 658.4978449 15.609375 657.71801758 C24.73118156 652.84066896 33.76897692 647.83316685 42.74584961 642.69335938 C51.19214048 637.87798218 59.7684263 633.32422023 68.35998535 628.77557373 C76.57245489 624.42468365 84.71964313 619.98910944 92.78564453 615.37011719 C102.69035943 609.70123516 112.74226453 604.33700446 122.83123779 599.0062561 C131.25529406 594.55495434 139.65379969 590.07104185 147.96191406 585.40576172 C153.97130095 582.03464225 160.03207341 578.7629451 166.09814453 575.49511719 C174.19480588 571.13022386 182.23054031 566.6726282 190.22314453 562.12011719 C197.82086019 557.79331076 205.47732291 553.6274712 213.23730469 549.60009766 C219.27129017 546.45078618 225.18990583 543.12353536 231.09814453 539.74511719 C240.54432131 534.35020144 250.10593754 529.20096106 259.72314453 524.12011719 C268.85006479 519.2979161 277.96069632 514.46024224 286.96191406 509.40576172 C292.97130138 506.034642 299.0320882 502.76297286 305.09814453 499.49511719 C312.9651713 495.25362864 320.77343145 490.92529169 328.53564453 486.49511719 C339.07090589 480.48545544 349.75271974 474.76862282 360.47363281 469.09936523 C361.0967334 468.76943069 361.71983398 468.43949615 362.36181641 468.0995636 C364.05845527 467.20176364 365.7562393 466.30612873 367.45410156 465.41064453 C370.40686738 463.87659179 370.40686738 463.87659179 372.98828125 462.03662109 C376.08706903 460.46442822 377.09979264 460.87279298 380.41064453 461.80761719 C385.0708957 463.82718134 388.85332347 466.16066107 392.41064453 469.80761719 C394.10188425 474.70138189 393.93639183 479.46436676 393.77294922 484.57714844 C393.76956002 486.06599146 393.77147281 487.5548545 393.77825928 489.04368591 C393.78169014 493.06758857 393.71137002 497.08716205 393.62737179 501.11006165 C393.55213455 505.32054421 393.54529024 509.53113645 393.53106689 513.7421875 C393.49383181 521.7079253 393.39545123 529.67167669 393.27487302 537.63654137 C393.14054208 546.70761496 393.07471597 555.77878563 393.0145278 564.85060692 C392.88924002 583.50406813 392.67829913 602.15568273 392.41064453 620.80761719 C391.68128693 621.19997055 390.95192932 621.59232391 390.20046997 621.99656677 C387.43797245 623.48282043 384.67562075 624.96934467 381.9133606 626.45603943 C380.15255418 627.40363424 378.39158689 628.35093007 376.63061523 629.29821777 C369.50390528 633.13422053 362.38790253 636.98903306 355.28564453 640.87011719 C354.34940247 641.3817038 353.4131604 641.89329041 352.44854736 642.42037964 C351.18841827 643.10899582 351.18841827 643.10899582 349.90283203 643.81152344 C344.07992983 646.99136902 338.2458216 650.15036792 332.41064453 653.30761719 C323.82990622 657.9508649 315.2589926 662.6116289 306.69750977 667.2902832 C301.97440614 669.86971063 297.24606338 672.43879469 292.50830078 674.99121094 C282.56252253 680.35197008 272.6620856 685.77111118 262.84814453 691.37011719 C254.34526485 696.21865103 245.73669596 700.80727738 237.03540039 705.28833008 C230.23527583 708.8082247 223.5568513 712.50591468 216.91064453 716.30761719 C209.32614147 720.64603538 201.67875116 724.80722354 193.91064453 728.80761719 C186.33388479 732.71133864 178.86963351 736.75988877 171.47314453 740.99511719 C162.19225064 746.3046067 152.80009588 751.37434054 143.34814453 756.37011719 C142.65955353 756.73410614 141.97096252 757.09809509 141.26150513 757.47311401 C140.57603607 757.83543121 139.89056702 758.19774841 139.18432617 758.57104492 C137.82093244 759.2917706 136.45756945 760.01255443 135.09423828 760.73339844 C134.43011429 761.08452194 133.7659903 761.43564545 133.08174133 761.79740906 C125.57911545 765.76914066 118.13144579 769.83963295 110.68798828 773.92089844 C106.97964853 775.95382967 103.26272703 777.96995541 99.53955078 779.97558594 C89.58276268 785.3405225 79.6722196 790.76532958 69.84814453 796.37011719 C61.34953394 801.2162167 52.7452604 805.80246402 44.04858398 810.28173828 C37.12103595 813.86802711 30.31254091 817.63241002 23.53564453 821.49511719 C19.82826538 823.60096884 16.12003599 825.70531211 12.41064453 827.80761719 C11.56050781 828.29020996 10.71037109 828.77280273 9.83447266 829.27001953 C7.49324238 830.59008474 5.14187433 831.88956425 2.78564453 833.18261719 C1.76494873 833.76402466 1.76494873 833.76402466 0.72363281 834.35717773 C-3.26963866 836.51879944 -5.26498792 837.06811162 -9.58935547 835.80761719 C-11.56697405 834.8857211 -13.51178017 833.8919177 -15.42919922 832.85058594 C-16.56325195 832.23876465 -17.69730469 831.62694336 -18.86572266 830.99658203 C-20.08618225 830.32957709 -21.30655787 829.66241846 -22.52685547 828.99511719 C-23.79250546 828.30917827 -25.05845958 827.62380022 -26.32470703 826.93896484 C-29.4978266 825.22070295 -32.66671004 823.49480651 -35.83392334 821.76568604 C-38.38250609 820.37473637 -40.93332562 818.98790378 -43.48388672 817.60058594 C-47.04971988 815.65897036 -50.61322323 813.71315885 -54.17529297 811.76464844 C-62.95704682 806.96337922 -71.76351054 802.2075924 -80.56591797 797.44433594 C-83.55352997 795.8270111 -86.54033534 794.20820726 -89.52685547 792.58886719 C-99.91378639 786.95762525 -110.30846706 781.34125806 -120.71435547 775.74511719 C-129.5806315 770.9765622 -138.42863072 766.17614794 -147.26171875 761.34643555 C-154.35555638 757.47141873 -161.46965352 753.63487481 -168.58935547 749.80761719 C-177.49752723 745.01895208 -186.38744284 740.19872146 -195.26123047 735.34667969 C-202.3552526 731.47162135 -209.46949325 727.63496096 -216.58935547 723.80761719 C-225.49752723 719.01895208 -234.38744284 714.19872146 -243.26123047 709.34667969 C-250.3552526 705.47162135 -257.46949325 701.63496096 -264.58935547 697.80761719 C-272.60337471 693.49961154 -280.6062214 689.17259594 -288.58935547 684.80761719 C-296.53183491 680.46540963 -304.4922981 676.15777855 -312.46435547 671.87011719 C-329.3835554 662.77035831 -346.27862388 653.62712842 -363.13427734 644.41015625 C-368.21017742 641.63832745 -373.29656547 638.88724081 -378.39404297 636.15527344 C-379.5492041 635.53579834 -380.70436523 634.91632324 -381.89453125 634.27807617 C-384.12349492 633.08397721 -386.35356677 631.89194354 -388.58496094 630.70239258 C-390.62700579 629.60835992 -392.66140605 628.49991047 -394.68701172 627.37573242 C-396.59814258 626.3431623 -398.54499308 625.37377871 -400.52294922 624.47583008 C-407.01133489 621.2912221 -407.01133489 621.2912221 -408.59228516 617.23339844 C-409.09054449 614.08297887 -409.18041864 611.18281401 -409.08935547 607.99511719 C-409.07525635 606.91883057 -409.06115723 605.84254395 -409.04663086 604.73364258 C-408.72782281 599.73030808 -408.33107604 595.83789794 -404.67919922 592.19824219 C-400.20969543 588.84672829 -395.93896699 586.8268313 -390.24560547 586.78027344 C-385.20958607 588.1953088 -381.12528346 590.63759035 -376.65185547 593.30761719 C-367.05333564 598.88752942 -357.34624996 604.19227878 -347.52685547 609.37011719 C-344.77513473 610.82375296 -342.02393746 612.27837697 -339.27294922 613.73339844 C-338.27664238 614.26016678 -338.27664238 614.26016678 -337.26020813 614.7975769 C-328.88360992 619.23180637 -320.5752914 623.78986538 -312.26416016 628.34521484 C-307.42188799 630.99264185 -302.56784364 633.61832593 -297.71435547 636.24511719 C-296.2189624 637.05468872 -296.2189624 637.05468872 -294.69335938 637.88061523 C-291.65884331 639.52323007 -288.62413274 641.16548498 -285.58935547 642.80761719 C-273.00744578 649.61574751 -260.42936433 656.43035998 -247.87573242 663.29052734 C-243.15280471 665.86989769 -238.42461426 668.43888092 -233.68701172 670.99121094 C-223.74123347 676.35197008 -213.84079654 681.77111118 -204.02685547 687.37011719 C-195.51596578 692.22321852 -186.89850004 696.81450876 -178.18994141 701.30151367 C-171.62964306 704.6984552 -165.18562557 708.25874187 -158.77685547 711.93261719 C-149.15844342 717.44232381 -139.4000901 722.65195267 -129.58935547 727.80761719 C-118.8422826 733.45533923 -108.18997135 739.2180216 -97.65576172 745.25683594 C-90.27475788 749.46998119 -82.76656453 753.39897555 -75.21166992 757.28955078 C-67.43784101 761.31357272 -59.83119016 765.59469577 -52.23413086 769.94116211 C-44.46136932 774.3667189 -36.58506328 778.56505319 -28.60131836 782.59790039 C-24.4067999 784.73087231 -20.37078736 786.85794472 -16.52685547 789.58105469 C-13.32324849 791.83219095 -10.38151254 793.66902908 -6.58935547 794.80761719 C-1.99520703 793.90702729 1.45872315 791.71817704 5.29589844 789.17333984 C8.50347088 787.10185979 11.83761475 785.27105522 15.16992188 783.40917969 C18.1204113 781.7602437 21.05627935 780.08696919 23.99267578 778.41308594 C30.84374004 774.53731665 37.77635693 770.82013955 44.72314453 767.12011719 C54.47783921 761.92145659 64.17968898 756.64299411 73.82714844 751.24804688 C79.38776661 748.14772111 84.96201658 745.07197216 90.53564453 741.99511719 C91.47103561 741.47854553 91.47103561 741.47854553 92.42532349 740.95153809 C100.85555902 736.29746325 109.30862624 731.68859109 117.78564453 727.12011719 C125.46420693 722.98155593 133.0821977 718.75163685 140.66064453 714.43261719 C149.76137729 709.24691367 158.96384196 704.26835469 168.21081543 699.35015869 C176.17471788 695.11170887 184.07615821 690.78131824 191.91064453 686.30761719 C200.92648943 681.15932882 210.04637259 676.2243159 219.21191406 671.34960938 C227.17544887 667.11133779 235.07647114 662.78103974 242.91064453 658.30761719 C251.44139054 653.43731483 260.05496784 648.73958564 268.72314453 644.12011719 C278.4775141 638.92083956 288.17967852 633.64299997 297.82714844 628.24804688 C312.85001571 619.87203885 327.92532645 611.58717713 343.03564453 603.37011719 C344.04256348 602.82057373 345.04948242 602.27103027 346.08691406 601.70483398 C347.47305908 600.95327026 347.47305908 600.95327026 348.88720703 600.18652344 C350.09497803 599.53018921 350.09497803 599.53018921 351.32714844 598.8605957 C353.41064453 597.80761719 353.41064453 597.80761719 356.41064453 596.80761719 C356.08064453 569.41761719 355.75064453 542.02761719 355.41064453 513.80761719 C333.08189953 525.7657511 333.08189953 525.7657511 310.82470703 537.85058594 C305.06974864 540.99700806 299.30364629 544.12268446 293.53564453 547.24511719 C292.53903809 547.78467041 291.54243164 548.32422363 290.515625 548.88012695 C286.46718185 551.07153702 282.41839793 553.2623171 278.36962891 555.453125 C267.70822762 561.22262287 257.05029459 566.99808515 246.41064453 572.80761719 C238.79298291 576.96706313 231.1678091 581.11234117 223.53564453 585.24511719 C222.53863525 585.78523437 221.54162598 586.32535156 220.5144043 586.88183594 C215.46866415 589.61431831 210.42033988 592.34186425 205.36767578 595.06152344 C195.4678207 600.39696685 185.6171021 605.79818709 175.84814453 611.37011719 C167.31687799 616.23192002 158.68614588 620.85380002 149.96289062 625.36083984 C140.64117393 630.18252672 131.44010236 635.21285003 122.23925781 640.26025391 C117.30537069 642.9592852 112.35746236 645.63238256 107.41064453 648.30761719 C99.73623639 652.46019522 92.06894588 656.62540958 84.41064453 660.80761719 C71.74788063 667.72192803 59.05859903 674.58706377 46.36962891 681.453125 C43.34147699 683.09183229 40.31352739 684.7309128 37.28564453 686.37011719 C36.30080078 686.90306396 35.31595703 687.43601074 34.30126953 687.98510742 C29.31614939 690.68469756 24.33591727 693.39279345 19.36376953 696.11621094 C17.89447998 696.92046509 17.89447998 696.92046509 16.39550781 697.7409668 C14.55965222 698.74665958 12.72461797 699.75385397 10.890625 700.76293945 C9.22191856 701.67701512 7.54374561 702.57405026 5.85595703 703.45239258 C3.36574467 704.76923379 3.36574467 704.76923379 1.05908203 706.50463867 C-1.58132328 708.25007817 -3.46421323 709.24660902 -6.58935547 709.80761719 C-11.81701133 708.33210089 -16.22477506 705.64693359 -20.83935547 702.87011719 C-22.17663034 702.10527646 -23.5161832 701.34440578 -24.85791016 700.58740234 C-27.54307803 699.06596102 -30.21544245 697.52528136 -32.87841797 695.96533203 C-37.80238113 693.08761558 -42.81856869 690.38665878 -47.83935547 687.68261719 C-49.59517709 686.72280073 -51.35038072 685.76185296 -53.10498047 684.79980469 C-59.25063383 681.43967208 -65.41977468 678.12355242 -71.58935547 674.80761719 C-80.54635495 669.99235847 -89.48647838 665.1477802 -98.41064453 660.27197266 C-113.48117539 652.03955221 -128.59057917 643.87923217 -143.71435547 635.74511719 C-152.58061095 630.97652367 -161.42863045 626.17614809 -170.26171875 621.34643555 C-177.35555638 617.47141873 -184.46965352 613.63487481 -191.58935547 609.80761719 C-200.49752723 605.01895208 -209.38744284 600.19872146 -218.26123047 595.34667969 C-225.3552526 591.47162135 -232.46949325 587.63496096 -239.58935547 583.80761719 C-247.60337471 579.49961154 -255.6062214 575.17259594 -263.58935547 570.80761719 C-272.6304523 565.86478802 -281.69752047 560.97144019 -290.77246094 556.09106445 C-301.06410253 550.55555866 -311.3398699 544.99104538 -321.61279297 539.42089844 C-324.62517411 537.78820367 -327.63838475 536.15704993 -330.65185547 534.52636719 C-340.22398867 529.34589111 -349.7898933 524.1547743 -359.33935547 518.93261719 C-369.18134356 513.55173833 -379.06565478 508.25132599 -388.96142578 502.97021484 C-390.08258789 502.37128418 -391.20375 501.77235352 -392.35888672 501.15527344 C-393.34477783 500.6294165 -394.33066895 500.10355957 -395.34643555 499.56176758 C-399.4459273 497.34428296 -403.51508192 495.07110249 -407.58935547 492.80761719 C-407.58935547 442.97761719 -407.58935547 393.14761719 -407.58935547 341.80761719 C-403.95935547 339.82761719 -400.32935547 337.84761719 -396.58935547 335.80761719 C-395.26935547 334.81761719 -393.94935547 333.82761719 -392.58935547 332.80761719 C-391.26935547 332.80761719 -389.94935547 332.80761719 -388.58935547 332.80761719 C-388.58935547 333.46761719 -388.58935547 334.12761719 -388.58935547 334.80761719 C-388.03344727 334.91726807 -387.47753906 335.02691895 -386.90478516 335.13989258 C-384.18786537 335.92339908 -382.00789809 337.10583553 -379.54248047 338.49121094 C-378.08358398 339.30307861 -378.08358398 339.30307861 -376.59521484 340.13134766 C-375.10731445 340.96110107 -375.10731445 340.96110107 -373.58935547 341.80761719 C-371.75269684 342.80198857 -369.91417112 343.7929196 -368.07373047 344.78027344 C-358.06344686 350.17102742 -348.09415004 355.61831111 -338.21435547 361.24511719 C-328.98010499 366.50355397 -319.6514346 371.56541147 -310.28125 376.5769043 C-302.20952113 380.90545737 -294.22966871 385.37742476 -286.27294922 389.91308594 C-278.01294667 394.60549454 -269.65311827 399.0996049 -261.27636719 403.5793457 C-254.19986844 407.37396712 -247.18833394 411.26556024 -240.21435547 415.24511719 C-231.15613196 420.41222098 -221.994887 425.36890255 -212.78863525 430.26535034 C-203.88264494 435.00519627 -195.07289133 439.89085831 -186.31201172 444.89355469 C-178.80632366 449.16169908 -171.21198642 453.25350986 -163.58935547 457.30761719 C-154.08169834 462.36427842 -144.66370913 467.55348556 -135.31201172 472.89355469 C-127.80632366 477.16169908 -120.21198642 481.25350986 -112.58935547 485.30761719 C-103.08169834 490.36427842 -93.66370913 495.55348556 -84.31201172 500.89355469 C-76.21868619 505.49586185 -68.01871967 509.88869172 -59.79916382 514.25958252 C-51.60129673 518.62177092 -43.47117762 523.0865116 -35.40185547 527.68261719 C-31.79904338 529.72668194 -28.19469474 531.7680136 -24.58935547 533.80761719 C-23.74646973 534.28585937 -22.90358398 534.76410156 -22.03515625 535.25683594 C-19.68653639 536.5811515 -17.3278079 537.88500506 -14.96435547 539.18261719 C-13.94305542 539.76438721 -13.94305542 539.76438721 -12.90112305 540.35791016 C-8.91163413 542.51733494 -6.9114843 543.05549913 -2.58935547 541.80761719 C-0.76985182 540.96974656 1.01809236 540.06153816 2.77783203 539.10449219 C3.81601074 538.54318604 4.85418945 537.98187988 5.92382812 537.40356445 C7.03322754 536.79440186 8.14262695 536.18523926 9.28564453 535.55761719 C11.02515381 534.61196899 11.02515381 534.61196899 12.79980469 533.6472168 C21.11447748 529.11839643 29.3575413 524.465662 37.58203125 519.77539062 C45.71523414 515.15529694 53.95374639 510.74179056 62.21136475 506.34988403 C70.17508224 502.11152394 78.07633675 497.78121628 85.91064453 493.30761719 C94.92648943 488.15932882 104.04637259 483.2243159 113.21191406 478.34960938 C121.17544887 474.11133779 129.07647114 469.78103974 136.91064453 465.30761719 C145.44139054 460.43731483 154.05496784 455.73958564 162.72314453 451.12011719 C171.71790971 446.32572417 180.67859432 441.48216643 189.57470703 436.50683594 C195.77605998 433.03871133 202.00076044 429.61280397 208.22314453 426.18261719 C210.73358149 424.79853941 213.24399144 423.41441264 215.75439453 422.03027344 C216.38594452 421.68209564 217.01749451 421.33391785 217.66818237 420.97518921 C222.07360128 418.54606574 226.47693281 416.113189 230.87939453 413.67871094 C233.32715525 412.32556404 235.77508168 410.97271741 238.22314453 409.62011719 C238.82633514 409.28682404 239.42952576 408.95353088 240.05099487 408.61013794 C248.27229884 404.0693936 256.51808474 399.57619866 264.78564453 395.12011719 C273.46465745 390.44178287 282.05924624 385.63088721 290.62695312 380.75219727 C298.90561678 376.05503818 307.28112313 371.55001202 315.67480469 367.0625 C324.19781825 362.49317151 332.63188895 357.77994412 341.02783203 352.98144531 C353.59806471 345.80761719 353.59806471 345.80761719 356.41064453 345.80761719 C356.08064453 317.42761719 355.75064453 289.04761719 355.41064453 259.80761719 C336.85506362 269.84836959 336.85506362 269.84836959 318.38720703 280.03808594 C310.89101197 284.21596117 303.37169156 288.35213696 295.85644531 292.49560547 C294.59326171 293.19205728 293.33007812 293.8885091 292.06689453 294.58496094 C291.4353244 294.9331488 290.80375427 295.28133667 290.15304565 295.64007568 C285.7476497 298.0691937 281.34433636 300.50205637 276.94189453 302.93652344 C274.49413381 304.28967034 272.04620738 305.64251696 269.59814453 306.99511719 C268.99495392 307.32841034 268.39176331 307.66170349 267.77029419 308.00509644 C259.54899023 312.54584077 251.30320432 317.03903571 243.03564453 321.49511719 C234.35663162 326.17345151 225.76204282 330.98434717 217.19433594 335.86303711 C208.90111905 340.56845343 200.51025087 345.0801746 192.10253906 349.5769043 C184.9837143 353.3944521 177.9282308 357.30730102 170.91064453 361.30761719 C161.71882852 366.54733477 152.43158283 371.58744594 143.10205078 376.57714844 C135.98340275 380.39463983 128.92807257 384.30739122 121.91064453 388.30761719 C113.80588341 392.92766826 105.63695839 397.40770753 97.41064453 401.80761719 C88.30556931 406.67966053 79.27900287 411.66704818 70.30297852 416.77246094 C62.55695137 421.17338678 54.77435117 425.50555829 46.97314453 429.80761719 C46.05580536 430.31358429 46.05580536 430.31358429 45.11993408 430.82977295 C38.66667605 434.38696381 32.20418299 437.92622896 25.72314453 441.43261719 C24.67505615 442.00020752 23.62696777 442.56779785 22.54711914 443.15258789 C20.52651412 444.24048253 18.50138097 445.32001598 16.47143555 446.39038086 C12.26354229 448.62339628 8.21764159 450.84650806 4.37548828 453.67089844 C1.15222512 455.99927673 -1.67750253 457.81093695 -5.58935547 458.80761719 C-10.86161541 457.4786139 -14.97325349 455.06391396 -19.51074219 452.12939453 C-22.19034628 450.42545085 -24.95772159 448.9235694 -27.74951172 447.41308594 C-29.99082748 446.19683655 -32.21495736 444.95322106 -34.43701172 443.70214844 C-40.55987262 440.2587224 -46.69918884 436.84506575 -52.83935547 433.43261719 C-53.70719162 432.94995895 -53.70719162 432.94995895 -54.59255981 432.45755005 C-63.21421349 427.66311115 -71.86487293 422.92524297 -80.53515625 418.21948242 C-86.97014196 414.71666583 -93.34826619 411.12135668 -99.71435547 407.49511719 C-108.37244808 402.56753544 -117.11135548 397.80573411 -125.90185547 393.12011719 C-135.65610596 387.92061219 -145.35838532 382.64300228 -155.00585938 377.24804688 C-160.56647755 374.14772111 -166.14072752 371.07197216 -171.71435547 367.99511719 C-172.64974655 367.47854553 -172.64974655 367.47854553 -173.60403442 366.95153809 C-183.0078455 361.75998201 -192.44492194 356.6332079 -201.90112305 351.53759766 C-209.76139119 347.28805572 -217.53341886 342.89252397 -225.29785156 338.47094727 C-231.9251916 334.71097639 -238.62433323 331.12385044 -245.38745117 327.61547852 C-252.70781981 323.79592199 -259.87014905 319.71301132 -267.04248047 315.62402344 C-273.00264061 312.23756881 -279.00451741 308.96405829 -285.08935547 305.80761719 C-291.94925281 302.24742644 -298.69100727 298.5160616 -305.40185547 294.68261719 C-314.37994573 289.55752206 -323.45389826 284.64373919 -332.58935547 279.80761719 C-342.413046 274.60650416 -352.14346119 269.28180796 -361.79248047 263.76098633 C-371.25124855 258.37613504 -380.85867993 253.27688884 -390.47802734 248.18652344 C-391.09730103 247.85850235 -391.71657471 247.53048126 -392.35461426 247.19252014 C-394.03759951 246.30168849 -395.7216426 245.41285613 -397.40576172 244.52416992 C-400.83221537 242.67667026 -404.20946439 240.73898352 -407.58935547 238.80761719 C-407.58935547 230.88761719 -407.58935547 222.96761719 -407.58935547 214.80761719 C-396.99306437 208.78227519 -386.31230188 202.93933659 -375.57226562 197.17431641 C-368.5634668 193.41150721 -361.56844575 189.62522827 -354.58935547 185.80761719 C-345.54692101 180.86382544 -336.47842612 175.96966461 -327.40185547 171.08886719 C-320.12400174 167.17465508 -312.85364552 163.24694065 -305.58935547 159.30761719 C-297.22298315 154.77064984 -288.84665743 150.25258145 -280.46435547 145.74511719 C-271.59805889 140.97660071 -262.75007994 136.17614779 -253.91699219 131.34643555 C-245.71780814 126.867622 -237.49029585 122.44216025 -229.26123047 118.01855469 C-222.35764724 114.30501584 -215.46731947 110.56837528 -208.58935547 106.80761719 C-199.50112859 101.83832355 -190.38463304 96.92291898 -181.26123047 92.01855469 C-174.35764689 88.30501565 -167.46734438 84.56833011 -160.58935547 80.80761719 C-151.54825864 75.86478802 -142.48119047 70.97144019 -133.40625 66.09106445 C-123.11172711 60.55400892 -112.83298834 54.98809996 -102.55712891 49.41650391 C-97.56862888 46.71214267 -92.57891417 44.01002447 -87.58935547 41.30761719 C-86.10628906 40.50420898 -86.10628906 40.50420898 -84.59326172 39.68457031 C-79.5690673 36.96285874 -74.54445063 34.24193178 -69.51904297 31.52246094 C-60.73994486 26.77094553 -51.96200611 22.01742945 -43.19897461 17.23632812 C-41.39181455 16.25086847 -39.58372417 15.26711273 -37.7746582 14.28515625 C-32.99083221 11.6845616 -28.23306874 9.04563625 -23.49951172 6.35449219 C-22.50000488 5.7925415 -21.50049805 5.23059082 -20.47070312 4.65161133 C-18.55096884 3.57138268 -16.63750309 2.47991419 -14.73144531 1.37573242 C-13.437146 0.65172241 -13.437146 0.65172241 -12.11669922 -0.08691406 C-11.36122803 -0.5185083 -10.60575684 -0.95010254 -9.82739258 -1.39477539 C-6.07361121 -2.73257442 -3.51418063 -1.61825931 0 0 Z " fill="#FE3520" transform="translate(407.58935546875,3.1923828125)"/>
</svg>
