<?xml version="1.0" encoding="UTF-8"?>
<svg version="1.1" xmlns="http://www.w3.org/2000/svg" width="128" height="128">
<path d="M0 0 C2.79468352 1.35348133 5.48821085 2.82017766 8.1875 4.35498047 C10.19639141 5.45174352 12.20551166 6.54808748 14.21484375 7.64404297 C15.2291748 8.20639648 16.24350586 8.76875 17.28857422 9.34814453 C22.23097648 12.06134432 27.24298563 14.63861951 32.25 17.22998047 C33.99863707 18.1377497 35.74615003 19.04768979 37.4921875 19.96044922 C38.22034668 20.33967529 38.94850586 20.71890137 39.69873047 21.10961914 C41.375 22.04248047 41.375 22.04248047 42.375 23.04248047 C42.41580783 25.04206411 42.41754356 27.04293301 42.375 29.04248047 C40.0703125 30.38232422 40.0703125 30.38232422 36.375 31.04248047 C32.42696702 29.68176588 28.8830791 27.6462073 25.25 25.60498047 C24.22116699 25.04746094 23.19233398 24.48994141 22.13232422 23.91552734 C16.86924726 21.04702963 11.66363733 18.08581594 6.5 15.04248047 C5.60023437 14.52556641 4.70046875 14.00865234 3.7734375 13.47607422 C1.375 12.04248047 1.375 12.04248047 -0.7734375 10.45263672 C-3.26357477 8.85580148 -4.65217866 8.20341516 -7.625 8.04248047 C-13.34513314 10.05209338 -18.43015643 12.94720302 -23.625 16.04248047 C-24.66011719 16.64447266 -25.69523437 17.24646484 -26.76171875 17.86669922 C-28.67165561 18.98452038 -30.57663537 20.11085447 -32.4765625 21.24560547 C-38.12728016 24.47058081 -43.98198891 27.29681785 -49.82324219 30.15771484 C-52.43101832 31.43828134 -55.0281094 32.74001521 -57.625 34.04248047 C-49.79275505 39.23301961 -41.42450226 43.3507561 -33.0625 47.60498047 C-30.83371312 48.74150456 -28.60548339 49.87909293 -26.37818909 51.01853943 C-25.0011531 51.72275158 -23.6232327 52.42523821 -22.24424744 53.12562561 C-19.04518181 54.75917429 -15.91875005 56.44929502 -12.83227539 58.2878418 C-9.80479862 60.27583695 -9.80479862 60.27583695 -6.6875 60.05029297 C-2.73074111 58.74819629 0.74431735 56.94160777 4.375 54.91748047 C5.90158515 54.08665799 7.42893889 53.2572463 8.95703125 52.42919922 C9.70936035 52.01976074 10.46168945 51.61032227 11.23681641 51.18847656 C14.14417865 49.630226 17.09885496 48.17784083 20.0625 46.72998047 C24.41066969 44.5912877 28.66206429 42.34335151 32.890625 39.97607422 C33.86684814 39.43184814 34.84307129 38.88762207 35.84887695 38.3269043 C37.78771456 37.2412894 39.72140559 36.1464184 41.64916992 35.04125977 C46.64822514 32.24557322 50.6221987 30.3431771 56.375 30.04248047 C56.63710888 34.41633846 56.79644886 38.78817856 56.9375 43.16748047 C57.01291016 44.40498047 57.08832031 45.64248047 57.16601562 46.91748047 C57.38259049 55.8692416 57.38259049 55.8692416 54.59741211 59.11230469 C52.25857262 60.70418497 49.95857159 61.89531195 47.375 63.04248047 C46.10141382 63.72467477 44.82915788 64.40936159 43.55859375 65.09716797 C42.31289122 65.7100648 41.0641001 66.31671886 39.8125 66.91748047 C38.40881231 67.60619725 37.00516765 68.29500174 35.6015625 68.98388672 C34.54437012 69.49846436 34.54437012 69.49846436 33.46582031 70.0234375 C30.19757229 71.61634587 26.94180186 73.23381854 23.6875 74.85498047 C22.72855835 75.32834839 22.72855835 75.32834839 21.75024414 75.8112793 C17.75430236 77.79878451 13.82210874 79.87837123 9.91015625 82.02685547 C8.97196045 82.53627686 8.03376465 83.04569824 7.06713867 83.57055664 C5.22254106 84.57526208 3.38507926 85.59320804 1.5559082 86.62573242 C-4.65439454 89.99139597 -4.65439454 89.99139597 -8.59375 90.19873047 C-13.31330953 88.39848611 -17.61529257 85.97372624 -22 83.47998047 C-23.97536641 82.37887363 -25.95193765 81.27992554 -27.9296875 80.18310547 C-28.89874023 79.64492187 -29.86779297 79.10673828 -30.86621094 78.55224609 C-36.40752924 75.51972287 -42.07394965 72.74318387 -47.74609375 69.96582031 C-51.04822293 68.3430744 -54.3356486 66.69092836 -57.625 65.04248047 C-59.3575 64.17623047 -59.3575 64.17623047 -61.125 63.29248047 C-61.95 62.87998047 -62.775 62.46748047 -63.625 62.04248047 C-63.625 65.01248047 -63.625 67.98248047 -63.625 71.04248047 C-62.35785156 71.42017578 -61.09070312 71.79787109 -59.78515625 72.18701172 C-54.16834812 74.06220709 -49.20110744 76.82090593 -44.0625 79.72998047 C-36.72421972 83.81415095 -29.36379389 87.77934249 -21.81225586 91.45532227 C-16.97034168 93.82140122 -16.97034168 93.82140122 -14.84326172 95.18310547 C-11.95379738 97.02983288 -10.08231044 98.04959814 -6.61328125 97.99560547 C-3.16181131 96.89474447 -0.01102479 95.46871495 3.1875 93.79248047 C3.85765137 93.44967041 4.52780273 93.10686035 5.21826172 92.75366211 C7.60904464 91.52642892 9.99222137 90.28518221 12.375 89.04248047 C14.41270839 87.98378657 16.45047201 86.92519899 18.48828125 85.86669922 C20.65890189 84.73788473 22.82947417 83.60897725 25 82.47998047 C26.07838135 81.91931885 27.1567627 81.35865723 28.26782227 80.78100586 C29.32155029 80.23307373 30.37527832 79.6851416 31.4609375 79.12060547 C32.47639648 78.59273438 33.49185547 78.06486328 34.53808594 77.52099609 C37.00024755 76.23779035 39.45759918 74.9459154 41.9140625 73.65185547 C43.15070538 73.01058154 44.38764991 72.36988875 45.625 71.72998047 C46.64078125 71.19759766 47.6565625 70.66521484 48.703125 70.11669922 C51.375 69.04248047 51.375 69.04248047 56.375 69.04248047 C56.375 77.95248047 56.375 86.86248047 56.375 96.04248047 C37.5299443 106.36524983 18.63915808 116.52225783 -0.625 126.04248047 C-1.615 126.53748047 -1.615 126.53748047 -2.625 127.04248047 C-10.88492876 128.22592645 -16.4412917 125.69346843 -23.5 121.66748047 C-25.52376053 120.5602204 -27.54851991 119.45478421 -29.57421875 118.35107422 C-30.58403809 117.79403809 -31.59385742 117.23700195 -32.63427734 116.66308594 C-37.13231199 114.22570194 -41.71827573 111.97904324 -46.3125 109.72998047 C-52.80347472 106.5233193 -59.11443665 103.16514668 -65.3125 99.41748047 C-67.37940157 98.18851197 -69.45943084 97.08516191 -71.625 96.04248047 C-71.625 93.40248047 -71.625 90.76248047 -71.625 88.04248047 C-66.27141906 88.5428792 -62.19330248 89.94249265 -57.4375 92.47998047 C-56.03549413 93.20589383 -54.63313268 93.93112073 -53.23046875 94.65576172 C-52.48974121 95.04199707 -51.74901367 95.42823242 -50.98583984 95.82617188 C-48.49968424 97.10704336 -45.99747342 98.35034976 -43.48828125 99.58544922 C-28.69767064 106.8698215 -28.69767064 106.8698215 -23.125 110.35498047 C-22.38121094 110.79455078 -21.63742188 111.23412109 -20.87109375 111.68701172 C-19.2193488 112.68380389 -17.61237982 113.75574385 -16.03515625 114.86669922 C-12.69892288 116.82999704 -10.50217684 117.72588773 -6.625 118.04248047 C-0.7333257 116.3564982 4.47545194 112.80796149 9.66699219 109.64648438 C14.43816896 106.82042673 19.38250357 104.32755255 24.3125 101.79248047 C26.25294258 100.78271386 28.1930584 99.77231902 30.1328125 98.76123047 C46.92781508 90.04248047 46.92781508 90.04248047 49.375 90.04248047 C48.88 85.58748047 48.88 85.58748047 48.375 81.04248047 C47.45557617 81.52491211 47.45557617 81.52491211 46.51757812 82.01708984 C24.69482049 93.45893958 24.69482049 93.45893958 14.97509766 98.22387695 C11.6874716 99.84541261 8.46269053 101.53491461 5.2734375 103.34326172 C4.59861328 103.7212793 3.92378906 104.09929687 3.22851562 104.48876953 C1.95085928 105.2095796 0.6806113 105.94375763 -0.58007812 106.69384766 C-4.78919197 109.05822642 -7.00260665 109.17120443 -11.625 108.04248047 C-13.78427633 107.08945705 -15.90592321 106.04855841 -17.9921875 104.94482422 C-18.58427002 104.63490036 -19.17635254 104.3249765 -19.78637695 104.00566101 C-21.69502989 103.00470169 -23.59745744 101.99249778 -25.5 100.97998047 C-27.47347589 99.94068857 -29.44836605 98.90412067 -31.42337036 97.86773682 C-32.71919057 97.18751783 -34.01450392 96.50633236 -35.30929565 95.82415771 C-39.38146769 93.68135595 -43.47523876 91.59731177 -47.61572266 89.59008789 C-49.45685971 88.68860345 -51.27045508 87.74434276 -53.0859375 86.79248047 C-55.72226817 85.48886442 -58.16812022 84.4660178 -60.9140625 83.47998047 C-65.24715735 81.72332039 -69.10958409 80.1559491 -71.625 76.04248047 C-73.47375818 67.54326953 -72.53501401 58.62087917 -71.625 50.04248047 C-67.93888365 48.86589085 -66.2154296 49.41674059 -62.75463867 51.18847656 C-62.11373291 51.53217285 -61.47282715 51.87586914 -60.8125 52.22998047 C-60.12454346 52.58656738 -59.43658691 52.9431543 -58.7277832 53.31054688 C-57.19463587 54.10727944 -55.66443347 54.90969635 -54.13671875 55.71679688 C-51.47248696 57.12297675 -48.79969297 58.5117775 -46.125 59.89794922 C-44.18736228 60.90419449 -42.24986456 61.91070938 -40.3125 62.91748047 C-39.34022461 63.42263184 -38.36794922 63.9277832 -37.36621094 64.44824219 C-32.59416872 66.93714314 -27.84693706 69.45851965 -23.140625 72.06982422 C-22.28251221 72.53984863 -21.42439941 73.00987305 -20.5402832 73.49414062 C-18.9322781 74.37728383 -17.33130435 75.27339924 -15.73901367 76.18457031 C-12.43830818 77.98589587 -10.34464249 79.04975877 -6.53515625 79.01123047 C-3.06928788 77.85749174 0.14294651 76.41260685 3.375 74.72998047 C4.05216064 74.38459229 4.72932129 74.0392041 5.42700195 73.68334961 C15.92800912 68.27864363 26.24646833 62.51971226 36.59033203 56.82226562 C38.4332516 55.80868228 40.27873289 54.79994836 42.125 53.79248047 C43.10984375 53.25107422 44.0946875 52.70966797 45.109375 52.15185547 C47.375 51.04248047 47.375 51.04248047 49.375 51.04248047 C49.375 48.07248047 49.375 45.10248047 49.375 42.04248047 C42.77527841 45.48325252 36.17649403 48.92581648 29.57861328 52.37011719 C27.51980114 53.4448667 25.46089016 54.51942692 23.40185547 55.59375 C21.5347667 56.56817603 19.66797638 57.54317416 17.80151367 58.51879883 C16.03036103 59.44436058 14.25839925 60.36837578 12.4855957 61.29077148 C8.88727673 63.16919598 5.30506632 65.05444939 1.796875 67.09716797 C0.83265625 67.65662109 -0.1315625 68.21607422 -1.125 68.79248047 C-1.8984375 69.26169922 -2.671875 69.73091797 -3.46875 70.21435547 C-6.938706 71.54701973 -9.68968836 70.45807848 -13.00244141 68.98608398 C-13.81890137 68.55223389 -14.63536133 68.11838379 -15.4765625 67.67138672 C-16.40049805 67.18460449 -17.32443359 66.69782227 -18.27636719 66.19628906 C-19.74831543 65.40859131 -19.74831543 65.40859131 -21.25 64.60498047 C-22.78382324 63.79407959 -22.78382324 63.79407959 -24.34863281 62.96679688 C-26.44439631 61.85836651 -28.53880043 60.74736208 -30.63183594 59.63378906 C-34.10419684 57.7877166 -37.58470385 55.9575441 -41.06665039 54.12963867 C-43.35938847 52.92567838 -45.65064359 51.71894464 -47.94140625 50.51123047 C-53.0637647 47.81076767 -58.18810481 45.11407584 -63.3125 42.41748047 C-64.92057966 41.57113912 -66.52865324 40.72478621 -68.13671875 39.87841797 C-69.86341797 38.96962891 -69.86341797 38.96962891 -71.625 38.04248047 C-71.625 35.40248047 -71.625 32.76248047 -71.625 30.04248047 C-67.21894112 27.76658517 -62.81216344 25.49208917 -58.40478516 23.21875 C-56.91338792 22.44925419 -55.42216964 21.67941142 -53.93115234 20.90917969 C-51.75668496 19.78597405 -49.58164627 18.66388596 -47.40625 17.54248047 C-46.68297516 17.16949829 -45.95970032 16.79651611 -45.21450806 16.41223145 C-41.53862094 14.52191238 -37.85400991 12.65234032 -34.14990234 10.81787109 C-33.07005066 10.28274902 -33.07005066 10.28274902 -31.96838379 9.73681641 C-30.61259668 9.0669963 -29.25535475 8.4001091 -27.8963623 7.73681641 C-23.40621991 5.52045079 -19.27558795 3.01279141 -15.2265625 0.07373047 C-10.15673117 -1.9359324 -5.12111739 -1.86802664 0 0 Z " fill="#FE3520" transform="translate(71.625,0.95751953125)"/>
</svg>
