<?xml version="1.0" encoding="UTF-8"?>
<svg version="1.1" xmlns="http://www.w3.org/2000/svg" width="128" height="128">
<path d="M0 0 C4.35763296 0.5028038 6.91905734 3.05301137 10 6 C11.56978799 8.99686799 12 10.61244725 12 14 C13.21236328 13.96519531 13.21236328 13.96519531 14.44921875 13.9296875 C15.51785156 13.91164063 16.58648437 13.89359375 17.6875 13.875 C18.74324219 13.85179687 19.79898438 13.82859375 20.88671875 13.8046875 C24.02251859 14.00141271 26.17645373 14.66942346 29 16 C28.93170839 19.41458042 28.80324393 22.04087046 26.55078125 24.73046875 C22.46334558 28.32138295 18.71608431 30.95946143 13.12109375 31.04296875 C9.60408208 32.12140161 9.39092047 32.44204992 7.7265625 35.5 C7.00932081 36.99207701 6.30962745 38.49267963 5.625 40 C-1.99648776 55.40907668 -13.47164107 65.41265007 -29.83984375 71.0703125 C-46.40570769 75.94382995 -67.82359321 76.71333949 -83.4375 68.4375 C-91.37086484 63.16598783 -95.80344592 55.10725114 -98 46 C-98.18433594 45.236875 -98.36867188 44.47375 -98.55859375 43.6875 C-99.10344405 40.37018134 -99.16979169 37.17353678 -99.1875 33.8125 C-99.20167969 32.58144531 -99.21585937 31.35039063 -99.23046875 30.08203125 C-99 27 -99 27 -97 25 C-94.29732998 24.78763143 -91.69449021 24.69904906 -88.98950195 24.69702148 C-88.16164688 24.68858215 -87.33379181 24.68014282 -86.48085022 24.67144775 C-83.73332162 24.64557831 -80.9859008 24.63350387 -78.23828125 24.62109375 C-76.32975918 24.60492152 -74.42124541 24.58774181 -72.51274109 24.56959534 C-67.47665253 24.52381419 -62.4405528 24.48907102 -57.40435791 24.45739746 C-49.3607865 24.40563355 -41.31733863 24.34013693 -33.27391624 24.26918221 C-30.4672336 24.24642978 -27.6605662 24.23010043 -24.85383606 24.21446228 C-23.12171265 24.20104444 -21.38959076 24.18742868 -19.6574707 24.17358398 C-18.88161621 24.17097061 -18.10576172 24.16835724 -17.30639648 24.16566467 C-12.77641098 24.12287681 -8.47098448 23.73911946 -4 23 C-4.10699219 22.39414062 -4.21398437 21.78828125 -4.32421875 21.1640625 C-5.44870019 13.30478359 -4.45388343 6.68082514 0 0 Z " fill="#2395EC" transform="translate(99,36)"/>
<path d="M0 0 C1.093125 0.00257812 2.18625 0.00515625 3.3125 0.0078125 C4.405625 0.00523438 5.49875 0.00265625 6.625 0 C9.3125 0.1328125 9.3125 0.1328125 10.3125 1.1328125 C10.41123816 3.13080822 10.44221799 5.13238408 10.4375 7.1328125 C10.44007812 8.2259375 10.44265625 9.3190625 10.4453125 10.4453125 C10.3125 13.1328125 10.3125 13.1328125 9.3125 14.1328125 C7.31450428 14.23155066 5.31292842 14.26253049 3.3125 14.2578125 C2.219375 14.26039062 1.12625 14.26296875 0 14.265625 C-2.6875 14.1328125 -2.6875 14.1328125 -3.6875 13.1328125 C-3.78623816 11.13481678 -3.81721799 9.13324092 -3.8125 7.1328125 C-3.81507812 6.0396875 -3.81765625 4.9465625 -3.8203125 3.8203125 C-3.64172116 0.20646411 -3.61384839 0.17859134 0 0 Z " fill="#2394EB" transform="translate(77.6875,44.8671875)"/>
<path d="M0 0 C1.093125 0.00257812 2.18625 0.00515625 3.3125 0.0078125 C4.405625 0.00523438 5.49875 0.00265625 6.625 0 C9.3125 0.1328125 9.3125 0.1328125 10.3125 1.1328125 C10.41123816 3.13080822 10.44221799 5.13238408 10.4375 7.1328125 C10.44007812 8.2259375 10.44265625 9.3190625 10.4453125 10.4453125 C10.3125 13.1328125 10.3125 13.1328125 9.3125 14.1328125 C7.31450428 14.23155066 5.31292842 14.26253049 3.3125 14.2578125 C2.219375 14.26039062 1.12625 14.26296875 0 14.265625 C-2.6875 14.1328125 -2.6875 14.1328125 -3.6875 13.1328125 C-3.78623816 11.13481678 -3.81721799 9.13324092 -3.8125 7.1328125 C-3.81507812 6.0396875 -3.81765625 4.9465625 -3.8203125 3.8203125 C-3.64172116 0.20646411 -3.61384839 0.17859134 0 0 Z " fill="#2394EB" transform="translate(61.6875,44.8671875)"/>
<path d="M0 0 C1.093125 0.00257812 2.18625 0.00515625 3.3125 0.0078125 C4.405625 0.00523438 5.49875 0.00265625 6.625 0 C9.3125 0.1328125 9.3125 0.1328125 10.3125 1.1328125 C10.41123816 3.13080822 10.44221799 5.13238408 10.4375 7.1328125 C10.44007812 8.2259375 10.44265625 9.3190625 10.4453125 10.4453125 C10.3125 13.1328125 10.3125 13.1328125 9.3125 14.1328125 C7.31450428 14.23155066 5.31292842 14.26253049 3.3125 14.2578125 C2.219375 14.26039062 1.12625 14.26296875 0 14.265625 C-2.6875 14.1328125 -2.6875 14.1328125 -3.6875 13.1328125 C-3.78623816 11.13481678 -3.81721799 9.13324092 -3.8125 7.1328125 C-3.81507812 6.0396875 -3.81765625 4.9465625 -3.8203125 3.8203125 C-3.64172116 0.20646411 -3.61384839 0.17859134 0 0 Z " fill="#2394EB" transform="translate(45.6875,44.8671875)"/>
<path d="M0 0 C1.093125 0.00257812 2.18625 0.00515625 3.3125 0.0078125 C4.405625 0.00523438 5.49875 0.00265625 6.625 0 C9.3125 0.1328125 9.3125 0.1328125 10.3125 1.1328125 C10.41123816 3.13080822 10.44221799 5.13238408 10.4375 7.1328125 C10.44007812 8.2259375 10.44265625 9.3190625 10.4453125 10.4453125 C10.3125 13.1328125 10.3125 13.1328125 9.3125 14.1328125 C7.31450428 14.23155066 5.31292842 14.26253049 3.3125 14.2578125 C2.219375 14.26039062 1.12625 14.26296875 0 14.265625 C-2.6875 14.1328125 -2.6875 14.1328125 -3.6875 13.1328125 C-3.78623816 11.13481678 -3.81721799 9.13324092 -3.8125 7.1328125 C-3.81507812 6.0396875 -3.81765625 4.9465625 -3.8203125 3.8203125 C-3.64172116 0.20646411 -3.61384839 0.17859134 0 0 Z " fill="#2394EB" transform="translate(29.6875,44.8671875)"/>
<path d="M0 0 C1.093125 0.00257812 2.18625 0.00515625 3.3125 0.0078125 C4.405625 0.00523438 5.49875 0.00265625 6.625 0 C9.3125 0.1328125 9.3125 0.1328125 10.3125 1.1328125 C10.41123816 3.13080822 10.44221799 5.13238408 10.4375 7.1328125 C10.44007812 8.2259375 10.44265625 9.3190625 10.4453125 10.4453125 C10.3125 13.1328125 10.3125 13.1328125 9.3125 14.1328125 C7.31450428 14.23155066 5.31292842 14.26253049 3.3125 14.2578125 C2.219375 14.26039062 1.12625 14.26296875 0 14.265625 C-2.6875 14.1328125 -2.6875 14.1328125 -3.6875 13.1328125 C-3.78623816 11.13481678 -3.81721799 9.13324092 -3.8125 7.1328125 C-3.81507812 6.0396875 -3.81765625 4.9465625 -3.8203125 3.8203125 C-3.64172116 0.20646411 -3.61384839 0.17859134 0 0 Z " fill="#2394EB" transform="translate(13.6875,44.8671875)"/>
<path d="M0 0 C1.093125 0.00257812 2.18625 0.00515625 3.3125 0.0078125 C4.405625 0.00523438 5.49875 0.00265625 6.625 0 C9.3125 0.1328125 9.3125 0.1328125 10.3125 1.1328125 C10.41123816 3.13080822 10.44221799 5.13238408 10.4375 7.1328125 C10.44007812 8.2259375 10.44265625 9.3190625 10.4453125 10.4453125 C10.3125 13.1328125 10.3125 13.1328125 9.3125 14.1328125 C7.31450428 14.23155066 5.31292842 14.26253049 3.3125 14.2578125 C2.219375 14.26039062 1.12625 14.26296875 0 14.265625 C-2.6875 14.1328125 -2.6875 14.1328125 -3.6875 13.1328125 C-3.78623816 11.13481678 -3.81721799 9.13324092 -3.8125 7.1328125 C-3.81507812 6.0396875 -3.81765625 4.9465625 -3.8203125 3.8203125 C-3.64172116 0.20646411 -3.61384839 0.17859134 0 0 Z " fill="#2394EB" transform="translate(61.6875,28.8671875)"/>
<path d="M0 0 C1.093125 0.00257812 2.18625 0.00515625 3.3125 0.0078125 C4.405625 0.00523438 5.49875 0.00265625 6.625 0 C9.3125 0.1328125 9.3125 0.1328125 10.3125 1.1328125 C10.41123816 3.13080822 10.44221799 5.13238408 10.4375 7.1328125 C10.44007812 8.2259375 10.44265625 9.3190625 10.4453125 10.4453125 C10.3125 13.1328125 10.3125 13.1328125 9.3125 14.1328125 C7.31450428 14.23155066 5.31292842 14.26253049 3.3125 14.2578125 C2.219375 14.26039062 1.12625 14.26296875 0 14.265625 C-2.6875 14.1328125 -2.6875 14.1328125 -3.6875 13.1328125 C-3.78623816 11.13481678 -3.81721799 9.13324092 -3.8125 7.1328125 C-3.81507812 6.0396875 -3.81765625 4.9465625 -3.8203125 3.8203125 C-3.64172116 0.20646411 -3.61384839 0.17859134 0 0 Z " fill="#2394EB" transform="translate(45.6875,28.8671875)"/>
<path d="M0 0 C1.093125 0.00257812 2.18625 0.00515625 3.3125 0.0078125 C4.405625 0.00523438 5.49875 0.00265625 6.625 0 C9.3125 0.1328125 9.3125 0.1328125 10.3125 1.1328125 C10.41123816 3.13080822 10.44221799 5.13238408 10.4375 7.1328125 C10.44007812 8.2259375 10.44265625 9.3190625 10.4453125 10.4453125 C10.3125 13.1328125 10.3125 13.1328125 9.3125 14.1328125 C7.31450428 14.23155066 5.31292842 14.26253049 3.3125 14.2578125 C2.219375 14.26039062 1.12625 14.26296875 0 14.265625 C-2.6875 14.1328125 -2.6875 14.1328125 -3.6875 13.1328125 C-3.78623816 11.13481678 -3.81721799 9.13324092 -3.8125 7.1328125 C-3.81507812 6.0396875 -3.81765625 4.9465625 -3.8203125 3.8203125 C-3.64172116 0.20646411 -3.61384839 0.17859134 0 0 Z " fill="#2394EB" transform="translate(29.6875,28.8671875)"/>
<path d="M0 0 C1.093125 0.00257812 2.18625 0.00515625 3.3125 0.0078125 C4.405625 0.00523438 5.49875 0.00265625 6.625 0 C9.3125 0.1328125 9.3125 0.1328125 10.3125 1.1328125 C10.41123816 3.13080822 10.44221799 5.13238408 10.4375 7.1328125 C10.44007812 8.2259375 10.44265625 9.3190625 10.4453125 10.4453125 C10.3125 13.1328125 10.3125 13.1328125 9.3125 14.1328125 C7.31450428 14.23155066 5.31292842 14.26253049 3.3125 14.2578125 C2.219375 14.26039062 1.12625 14.26296875 0 14.265625 C-2.6875 14.1328125 -2.6875 14.1328125 -3.6875 13.1328125 C-3.78623816 11.13481678 -3.81721799 9.13324092 -3.8125 7.1328125 C-3.81507812 6.0396875 -3.81765625 4.9465625 -3.8203125 3.8203125 C-3.64172116 0.20646411 -3.61384839 0.17859134 0 0 Z " fill="#2394EB" transform="translate(61.6875,12.8671875)"/>
</svg>
