<?xml version="1.0" encoding="UTF-8"?>
<svg version="1.1" xmlns="http://www.w3.org/2000/svg" width="128" height="128">
<path d="M0 0 C2.56314499 -0.08132187 5.12368418 -0.14064175 7.6875 -0.1875 C8.40873047 -0.21263672 9.12996094 -0.23777344 9.87304688 -0.26367188 C14.47253253 -0.32667853 17.38488305 0.09725416 21 3 C26.30189594 9.7209328 26.20734236 16.67022249 26.25 24.8125 C26.270625 25.78509766 26.29125 26.75769531 26.3125 27.75976562 C26.34798832 34.31179647 25.97926583 39.61895023 21.46484375 44.7421875 C15.5523645 49.12740229 15.5523645 49.12740229 10.91748047 49.11352539 C9.65639969 49.11341209 9.65639969 49.11341209 8.36984253 49.11329651 C7.00727829 49.10555458 7.00727829 49.10555458 5.6171875 49.09765625 C4.68778351 49.0962413 3.75837952 49.09482635 2.80081177 49.09336853 C-0.17449124 49.08776053 -3.14971964 49.07520668 -6.125 49.0625 C-8.13932183 49.05748603 -10.15364484 49.05292295 -12.16796875 49.04882812 C-17.11200802 49.0377885 -22.05599135 49.02051849 -27 49 C-27 50.32 -27 51.64 -27 53 C-19.08 53 -11.16 53 -3 53 C-2.938125 55.536875 -2.87625 58.07375 -2.8125 60.6875 C-2.77153198 61.87218872 -2.77153198 61.87218872 -2.72973633 63.08081055 C-2.67629157 67.62591335 -3.23178145 70.38781238 -6 74 C-11.19642704 79.0172399 -18.66273021 78.18220307 -25.4375 78.1875 C-26.25798828 78.19974609 -27.07847656 78.21199219 -27.92382812 78.22460938 C-33.47151848 78.23789195 -39.22205178 78.23606146 -43.7421875 74.59765625 C-48.8877018 67.62459721 -48.2163565 61.52746371 -48.25 53.125 C-48.270625 51.84496094 -48.29125 50.56492188 -48.3125 49.24609375 C-48.32023437 47.39564453 -48.32023437 47.39564453 -48.328125 45.5078125 C-48.3374707 44.38004395 -48.34681641 43.25227539 -48.35644531 42.09033203 C-47.81011707 37.35374103 -45.96871162 34.85057606 -42.4375 31.75 C-38.86051365 29.18190724 -36.98438406 28.86685698 -32.6171875 28.7890625 C-31.53179687 28.76070312 -30.44640625 28.73234375 -29.328125 28.703125 C-27.04963221 28.65157539 -24.77096559 28.60715187 -22.4921875 28.5703125 C-11.87085 28.35693101 -11.87085 28.35693101 -3.0625 23 C-1.41308863 19.89522566 -0.85534059 17.22900336 -0.68359375 13.76953125 C-0.62075195 12.56586914 -0.62075195 12.56586914 -0.55664062 11.33789062 C-0.51732422 10.50451172 -0.47800781 9.67113281 -0.4375 8.8125 C-0.37272461 7.5450293 -0.37272461 7.5450293 -0.30664062 6.25195312 C-0.20068482 4.16815567 -0.0998498 2.08409897 0 0 Z M-14 60 C-14.66 61.32 -15.32 62.64 -16 64 C-15.34 64.66 -14.68 65.32 -14 66 C-11.89179203 65.6814823 -11.89179203 65.6814823 -10 65 C-10.33 63.35 -10.66 61.7 -11 60 C-11.99 60 -12.98 60 -14 60 Z " fill="#FFC106" transform="translate(88,37)"/>
<path d="M0 0 C1.23073242 -0.01836914 1.23073242 -0.01836914 2.48632812 -0.03710938 C14.08285826 -0.06487441 14.08285826 -0.06487441 18.08349609 3.5690918 C22.60014273 9.44839587 22.29334529 16.14036277 22.15942383 23.27880859 C22.12493782 25.31617366 22.1388428 27.34922837 22.15820312 29.38671875 C22.07377281 40.72289614 22.07377281 40.72289614 17.5625 46.1875 C13.98094225 48.95315911 11.36704463 49.56101159 6.88671875 49.59375 C5.27313477 49.62662109 5.27313477 49.62662109 3.62695312 49.66015625 C2.51255859 49.66917969 1.39816406 49.67820313 0.25 49.6875 C-11.71386437 49.57718586 -11.71386437 49.57718586 -22.27734375 54.6328125 C-26.87978921 61.67570058 -26.33574654 70.04722334 -26.4375 78.1875 C-28.81375177 78.29633596 -31.18493976 78.37516696 -33.5625 78.4375 C-34.22765625 78.47101563 -34.8928125 78.50453125 -35.578125 78.5390625 C-40.7136981 78.63976001 -43.52014289 77.45001532 -47.4375 74.1875 C-53.57628065 63.2253917 -53.33562127 50.99989045 -50.421875 39.125 C-48.85703131 34.45530773 -46.79243811 32.55223942 -42.54095459 30.08840942 C-40.24507864 29.10508595 -38.70469513 28.94510991 -36.21972656 28.96044922 C-34.9889035 28.96067581 -34.9889035 28.96067581 -33.73321533 28.96090698 C-32.41894562 28.97639084 -32.41894562 28.97639084 -31.078125 28.9921875 C-30.17374695 28.9950174 -29.2693689 28.99784729 -28.33758545 29.00076294 C-25.45408805 29.01194218 -22.57090325 29.03704267 -19.6875 29.0625 C-17.73047324 29.07253272 -15.77344161 29.08165806 -13.81640625 29.08984375 C-9.02331738 29.11187415 -4.23046166 29.14638856 0.5625 29.1875 C0.5625 27.8675 0.5625 26.5475 0.5625 25.1875 C-7.3575 25.1875 -15.2775 25.1875 -23.4375 25.1875 C-23.499375 22.83625 -23.56125 20.485 -23.625 18.0625 C-23.65231201 17.33401855 -23.67962402 16.60553711 -23.70776367 15.85498047 C-23.76657785 11.19158534 -22.89292536 8.12910387 -20.4375 4.1875 C-14.49195745 -0.47251984 -7.20900157 0.00563644 0 0 Z M-13.4375 12.1875 C-14.0975 13.5075 -14.7575 14.8275 -15.4375 16.1875 C-14.7775 16.8475 -14.1175 17.5075 -13.4375 18.1875 C-11.32929203 17.8689823 -11.32929203 17.8689823 -9.4375 17.1875 C-9.7675 15.5375 -10.0975 13.8875 -10.4375 12.1875 C-11.4275 12.1875 -12.4175 12.1875 -13.4375 12.1875 Z " fill="#0177BC" transform="translate(63.4375,12.8125)"/>
</svg>
